# xmcd
# 
# Track frame offsets:
#     150
#     14685
#     34456
#     50521
#     68895
#     86307
#     102531
#     113943
#     131296
#     147904
#     165101
#     179776
#     197279
#     210597
#     223813
#     234250
#     253782
#     263128
#     280078
#     290995
# 
# Disc length: 4088
# 
# Revision: 1
# Processed by: cddbd v1.5.2PL0 Copyright (c) Steve Scherf et al.
# Submitted via: fre:ac v1.0.31
# 
DISCID=310ff614
DTITLE=Various Artist - Bloodshot Records Sampler 17
DYEAR=2017
DGENRE=AltCountry
TTITLE0=Sarah Shook and The Disarmers - The Nail
TTITLE1=Banditos - Fine Fine Day
TTITLE2=Jon Langford - Halfway Home
TTITLE3=Lydia Loveless - Mile High
TTITLE4=The Yawpers - Mon Dieu
TTITLE5=Ruby Boots - It's So Cruel
TTITLE6=Barrence Whitfield and The Savages - Papa Barrence's Christmas
TTITLE7=Cory Branan - Imogene
TTITLE8=Ha Ha Tonka - Race to the Bottom
TTITLE9=Scott H Biram - Long Old Time
TTITLE10=Luke Winslow-King - Act Like You Love Me
TTITLE11=Robbie Fulks - Alabama at Night
TTITLE12=The Flat Five - This Is Your Night
TTITLE13=Murder By Death - Last Thing
TTITLE14=Wayne Hancock - Killed Them Both
TTITLE15=The Handsome Family - $1000 Car
TTITLE16=The Detroit Cobras - (I Wanna Know) What's Going On
TTITLE17=The Bottle Rockets - Monday (Everytime I Turn Around)
TTITLE18=Justin Townes Earle - Memphis in the Rain
TTITLE19=Alejandro Escovedo - Castanets
EXTD=
EXTT0=
EXTT1=
EXTT2=
EXTT3=
EXTT4=
EXTT5=
EXTT6=
EXTT7=
EXTT8=
EXTT9=
EXTT10=
EXTT11=
EXTT12=
EXTT13=
EXTT14=
EXTT15=
EXTT16=
EXTT17=
EXTT18=
EXTT19=
PLAYORDER=
